<svg width="20" height="21" viewBox="0 0 20 21" fill="currentColor" xmlns="http://www.w3.org/2000/svg">
<path d="M17.9523 5.91498C18.3332 7.39998 18.3332 10.5 18.3332 10.5C18.3332 10.5 18.3332 13.6 17.9523 15.085C17.7407 15.9058 17.1215 16.5516 16.3373 16.77C14.9132 17.1666 9.99984 17.1666 9.99984 17.1666C9.99984 17.1666 5.089 17.1666 3.66234 16.77C2.87484 16.5483 2.2565 15.9033 2.04734 15.085C1.6665 13.6 1.6665 10.5 1.6665 10.5C1.6665 10.5 1.6665 7.39998 2.04734 5.91498C2.259 5.09415 2.87817 4.44831 3.66234 4.22998C5.089 3.83331 9.99984 3.83331 9.99984 3.83331C9.99984 3.83331 14.9132 3.83331 16.3373 4.22998C17.1248 4.45165 17.7432 5.09665 17.9523 5.91498ZM8.33317 13.4166L13.3332 10.5L8.33317 7.58331V13.4166Z" fill="currentColor"/>
</svg>
